<svg width="512" height="512" viewBox="0 0 512 512" fill="none" xmlns="http://www.w3.org/2000/svg">
<g filter="url(#filter0_d_7_7)">
<path d="M20.8125 427V88.7969H147.609C169.328 88.7969 188.234 93.0156 204.328 101.453C220.578 109.734 233.156 121.453 242.062 136.609C250.969 151.609 255.422 169.266 255.422 189.578V190.047C255.422 213.484 249.328 233.797 237.141 250.984C225.109 268.016 208.547 279.891 187.453 286.609L265.734 427H216.281L143.859 293.172C143.391 293.172 142.922 293.172 142.453 293.172C142.141 293.172 141.75 293.172 141.281 293.172H63V427H20.8125ZM63 255.906H143.859C165.578 255.906 182.297 250.281 194.016 239.031C205.891 227.781 211.828 211.766 211.828 190.984V190.516C211.828 170.359 205.578 154.656 193.078 143.406C180.734 132 163.703 126.297 141.984 126.297H63V255.906Z" fill="#484A72"/>
</g>
<path d="M400.969 431.688C381.906 431.688 365.422 428.641 351.516 422.547C337.609 416.453 326.594 407.938 318.469 397C310.5 386.062 305.656 373.328 303.938 358.797L303.703 356.688H344.484L344.953 359.031C347.453 371.219 353.312 380.75 362.531 387.625C371.75 394.344 384.641 397.703 401.203 397.703C412.297 397.703 421.75 396.297 429.562 393.484C437.375 390.516 443.391 386.375 447.609 381.062C451.828 375.594 453.938 369.188 453.938 361.844V361.609C453.938 352.859 451.281 345.828 445.969 340.516C440.656 335.203 431.047 330.828 417.141 327.391L378.469 318.016C363.156 314.266 350.422 309.422 340.266 303.484C330.266 297.391 322.766 289.969 317.766 281.219C312.766 272.469 310.266 262.234 310.266 250.516V250.281C310.266 236.219 314.016 223.797 321.516 213.016C329.172 202.234 339.719 193.797 353.156 187.703C366.75 181.609 382.297 178.562 399.797 178.562C417.609 178.562 433.078 181.766 446.203 188.172C459.484 194.422 469.875 203.016 477.375 213.953C485.031 224.734 489.328 236.922 490.266 250.516L490.5 253.562H451.594L451.359 251.922C449.797 240.047 444.562 230.516 435.656 223.328C426.906 216.141 414.953 212.547 399.797 212.547C389.953 212.547 381.438 214.031 374.25 217C367.062 219.969 361.516 224.188 357.609 229.656C353.859 234.969 351.984 241.219 351.984 248.406V248.641C351.984 254.109 353.234 259.109 355.734 263.641C358.391 268.016 362.531 271.844 368.156 275.125C373.781 278.406 381.047 281.141 389.953 283.328L428.625 292.703C453.312 298.641 470.656 306.844 480.656 317.312C490.656 327.625 495.656 341.453 495.656 358.797V359.031C495.656 373.25 491.516 385.828 483.234 396.766C475.109 407.703 463.859 416.297 449.484 422.547C435.266 428.641 419.094 431.688 400.969 431.688Z" fill="url(#paint0_linear_7_7)"/>
<defs>
<filter id="filter0_d_7_7" x="20.8125" y="88.7969" width="299.922" height="368.203" filterUnits="userSpaceOnUse" color-interpolation-filters="sRGB">
<feFlood flood-opacity="0" result="BackgroundImageFix"/>
<feColorMatrix in="SourceAlpha" type="matrix" values="0 0 0 0 0 0 0 0 0 0 0 0 0 0 0 0 0 0 127 0" result="hardAlpha"/>
<feOffset dx="50" dy="25"/>
<feGaussianBlur stdDeviation="2.5"/>
<feComposite in2="hardAlpha" operator="out"/>
<feColorMatrix type="matrix" values="0 0 0 0 0.94902 0 0 0 0 0.952941 0 0 0 0 0.968627 0 0 0 1 0"/>
<feBlend mode="normal" in2="BackgroundImageFix" result="effect1_dropShadow_7_7"/>
<feBlend mode="normal" in="SourceGraphic" in2="effect1_dropShadow_7_7" result="shape"/>
</filter>
<linearGradient id="paint0_linear_7_7" x1="512" y1="256" x2="288" y2="256" gradientUnits="userSpaceOnUse">
<stop stop-color="#484A72"/>
<stop offset="1" stop-color="#F2F3F7"/>
</linearGradient>
</defs>
</svg>
