<svg width="100" height="51" viewBox="0 0 100 51" fill="none" xmlns="http://www.w3.org/2000/svg">
<path d="M1.59961 32V19.3174H6.44238C7.25684 19.3174 7.96582 19.4756 8.56934 19.792C9.17871 20.1025 9.65039 20.5391 9.98438 21.1016C10.3184 21.6641 10.4854 22.3262 10.4854 23.0879V23.1055C10.4854 23.9844 10.2598 24.7461 9.80859 25.3906C9.35742 26.0352 8.7334 26.4834 7.93652 26.7354L10.8721 32H9.01758L6.30176 26.9814C6.29004 26.9814 6.27539 26.9814 6.25781 26.9814C6.24023 26.9814 6.22559 26.9814 6.21387 26.9814H3.18164V32H1.59961ZM3.18164 25.5752H6.30176C7.11621 25.5752 7.74316 25.3672 8.18262 24.9512C8.62793 24.5293 8.85059 23.9316 8.85059 23.1582V23.1406C8.85059 22.3848 8.61914 21.793 8.15625 21.3652C7.69336 20.9375 7.05176 20.7236 6.23145 20.7236H3.18164V25.5752ZM16.7695 32.167C15.8789 32.167 15.1055 31.9707 14.4492 31.5781C13.7988 31.1797 13.2949 30.6143 12.9375 29.8818C12.5859 29.1494 12.4102 28.2822 12.4102 27.2803V27.2627C12.4102 26.249 12.5859 25.3789 12.9375 24.6523C13.2949 23.9199 13.7988 23.3574 14.4492 22.9648C15.1055 22.5723 15.8789 22.376 16.7695 22.376C17.6719 22.376 18.4482 22.5723 19.0986 22.9648C19.749 23.3574 20.25 23.9199 20.6016 24.6523C20.959 25.3789 21.1377 26.249 21.1377 27.2627V27.2803C21.1377 28.2881 20.959 29.1582 20.6016 29.8906C20.25 30.6172 19.749 31.1797 19.0986 31.5781C18.4482 31.9707 17.6719 32.167 16.7695 32.167ZM16.7695 30.8135C17.3672 30.8135 17.874 30.6729 18.29 30.3916C18.7061 30.1104 19.0225 29.709 19.2393 29.1875C19.4619 28.6602 19.5732 28.0244 19.5732 27.2803V27.2627C19.5732 26.5127 19.4619 25.874 19.2393 25.3467C19.0225 24.8193 18.7061 24.418 18.29 24.1426C17.874 23.8672 17.3672 23.7295 16.7695 23.7295C16.1777 23.7295 15.6738 23.8672 15.2578 24.1426C14.8418 24.418 14.5225 24.8193 14.2998 25.3467C14.083 25.874 13.9746 26.5127 13.9746 27.2627V27.2803C13.9746 28.0244 14.083 28.6602 14.2998 29.1875C14.5225 29.709 14.8418 30.1104 15.2578 30.3916C15.6738 30.6729 16.1777 30.8135 16.7695 30.8135ZM27.3691 35.3398C26.6074 35.3398 25.9424 35.2314 25.374 35.0146C24.8057 34.8037 24.3516 34.502 24.0117 34.1094C23.6777 33.7227 23.4697 33.2715 23.3877 32.7559L23.3965 32.7471H24.9785L24.9873 32.7559C25.0752 33.1133 25.3242 33.4062 25.7344 33.6348C26.1445 33.8691 26.6895 33.9863 27.3691 33.9863C28.2129 33.9863 28.8721 33.793 29.3467 33.4062C29.8271 33.0195 30.0674 32.4775 30.0674 31.7803V29.8994H29.9268C29.7275 30.2451 29.4785 30.541 29.1797 30.7871C28.8809 31.0332 28.5439 31.2207 28.1689 31.3496C27.7939 31.4727 27.3896 31.5342 26.9561 31.5342C26.1475 31.5342 25.4443 31.3408 24.8467 30.9541C24.2549 30.5615 23.7979 30.0225 23.4756 29.3369C23.1533 28.6514 22.9922 27.8633 22.9922 26.9727V26.9551C22.9922 26.0703 23.1533 25.2852 23.4756 24.5996C23.8037 23.9082 24.2666 23.3662 24.8643 22.9736C25.4619 22.5752 26.1709 22.376 26.9912 22.376C27.4365 22.376 27.8467 22.4463 28.2217 22.5869C28.5967 22.7275 28.9277 22.9268 29.2148 23.1846C29.5078 23.4424 29.751 23.75 29.9443 24.1074H30.0498V22.543H31.5791V31.8594C31.5791 32.5625 31.4062 33.1748 31.0605 33.6963C30.7207 34.2178 30.2344 34.6221 29.6016 34.9092C28.9688 35.1963 28.2246 35.3398 27.3691 35.3398ZM27.29 30.1807C27.876 30.1807 28.377 30.0459 28.793 29.7764C29.209 29.501 29.5283 29.123 29.751 28.6426C29.9795 28.1621 30.0938 27.6055 30.0938 26.9727V26.9551C30.0938 26.3281 29.9795 25.7715 29.751 25.2852C29.5283 24.7988 29.209 24.418 28.793 24.1426C28.377 23.8672 27.876 23.7295 27.29 23.7295C26.71 23.7295 26.2148 23.8672 25.8047 24.1426C25.4004 24.418 25.0898 24.7988 24.873 25.2852C24.6621 25.7715 24.5566 26.3281 24.5566 26.9551V26.9727C24.5566 27.6055 24.6621 28.1621 24.873 28.6426C25.0898 29.123 25.4004 29.501 25.8047 29.7764C26.2148 30.0459 26.71 30.1807 27.29 30.1807ZM38.2412 32.167C37.3389 32.167 36.5654 31.9678 35.9209 31.5693C35.2764 31.1709 34.7783 30.6084 34.4268 29.8818C34.0811 29.1553 33.9082 28.2969 33.9082 27.3066V27.2979C33.9082 26.3193 34.0811 25.4609 34.4268 24.7227C34.7783 23.9844 35.2705 23.4102 35.9033 23C36.542 22.584 37.2891 22.376 38.1445 22.376C39.0059 22.376 39.7441 22.5752 40.3594 22.9736C40.9805 23.3662 41.4551 23.9199 41.7832 24.6348C42.1172 25.3438 42.2842 26.1699 42.2842 27.1133V27.7109H34.6992V26.4893H41.502L40.7461 27.6055V26.999C40.7461 26.2549 40.6348 25.6426 40.4121 25.1621C40.1895 24.6816 39.8818 24.3242 39.4893 24.0898C39.0967 23.8555 38.6455 23.7383 38.1357 23.7383C37.626 23.7383 37.1719 23.8613 36.7734 24.1074C36.375 24.3535 36.0586 24.7197 35.8242 25.2061C35.5898 25.6924 35.4727 26.29 35.4727 26.999V27.6055C35.4727 28.2793 35.5869 28.8535 35.8154 29.3281C36.0439 29.8027 36.3662 30.1689 36.7822 30.4268C37.2041 30.6787 37.7021 30.8047 38.2764 30.8047C38.7041 30.8047 39.0762 30.7461 39.3926 30.6289C39.709 30.5117 39.9697 30.3623 40.1748 30.1807C40.3799 29.999 40.5234 29.8115 40.6055 29.6182L40.6406 29.5391H42.1699L42.1523 29.6094C42.0703 29.9375 41.9238 30.2539 41.7129 30.5586C41.5078 30.8574 41.2383 31.1299 40.9043 31.376C40.5762 31.6162 40.1895 31.8096 39.7441 31.9561C39.2988 32.0967 38.7979 32.167 38.2412 32.167Z" fill="#484A72"/>
<g filter="url(#filter0_d_5_4)">
<path d="M45.4062 32V22.543H46.9355V23.9492H47.0674C47.249 23.4512 47.5537 23.0645 47.9814 22.7891C48.415 22.5137 48.9482 22.376 49.5811 22.376C49.7275 22.376 49.8711 22.3848 50.0117 22.4023C50.1582 22.4141 50.2666 22.4258 50.3369 22.4375V23.9229C50.1846 23.8936 50.0322 23.873 49.8799 23.8613C49.7334 23.8438 49.5752 23.835 49.4053 23.835C48.9248 23.835 48.4971 23.9316 48.1221 24.125C47.7529 24.3125 47.4629 24.5791 47.252 24.9248C47.041 25.2705 46.9355 25.6748 46.9355 26.1377V32H45.4062Z" fill="#484A72"/>
</g>
<path d="M56.291 32.167C55.4004 32.167 54.627 31.9707 53.9707 31.5781C53.3203 31.1797 52.8164 30.6143 52.459 29.8818C52.1074 29.1494 51.9316 28.2822 51.9316 27.2803V27.2627C51.9316 26.249 52.1074 25.3789 52.459 24.6523C52.8164 23.9199 53.3203 23.3574 53.9707 22.9648C54.627 22.5723 55.4004 22.376 56.291 22.376C57.1934 22.376 57.9697 22.5723 58.6201 22.9648C59.2705 23.3574 59.7715 23.9199 60.123 24.6523C60.4805 25.3789 60.6592 26.249 60.6592 27.2627V27.2803C60.6592 28.2881 60.4805 29.1582 60.123 29.8906C59.7715 30.6172 59.2705 31.1797 58.6201 31.5781C57.9697 31.9707 57.1934 32.167 56.291 32.167ZM56.291 30.8135C56.8887 30.8135 57.3955 30.6729 57.8115 30.3916C58.2275 30.1104 58.5439 29.709 58.7607 29.1875C58.9834 28.6602 59.0947 28.0244 59.0947 27.2803V27.2627C59.0947 26.5127 58.9834 25.874 58.7607 25.3467C58.5439 24.8193 58.2275 24.418 57.8115 24.1426C57.3955 23.8672 56.8887 23.7295 56.291 23.7295C55.6992 23.7295 55.1953 23.8672 54.7793 24.1426C54.3633 24.418 54.0439 24.8193 53.8213 25.3467C53.6045 25.874 53.4961 26.5127 53.4961 27.2627V27.2803C53.4961 28.0244 53.6045 28.6602 53.8213 29.1875C54.0439 29.709 54.3633 30.1104 54.7793 30.3916C55.1953 30.6729 55.6992 30.8135 56.291 30.8135ZM66.8906 35.3398C66.1289 35.3398 65.4639 35.2314 64.8955 35.0146C64.3271 34.8037 63.873 34.502 63.5332 34.1094C63.1992 33.7227 62.9912 33.2715 62.9092 32.7559L62.918 32.7471H64.5L64.5088 32.7559C64.5967 33.1133 64.8457 33.4062 65.2559 33.6348C65.666 33.8691 66.2109 33.9863 66.8906 33.9863C67.7344 33.9863 68.3936 33.793 68.8682 33.4062C69.3486 33.0195 69.5889 32.4775 69.5889 31.7803V29.8994H69.4482C69.249 30.2451 69 30.541 68.7012 30.7871C68.4023 31.0332 68.0654 31.2207 67.6904 31.3496C67.3154 31.4727 66.9111 31.5342 66.4775 31.5342C65.6689 31.5342 64.9658 31.3408 64.3682 30.9541C63.7764 30.5615 63.3193 30.0225 62.9971 29.3369C62.6748 28.6514 62.5137 27.8633 62.5137 26.9727V26.9551C62.5137 26.0703 62.6748 25.2852 62.9971 24.5996C63.3252 23.9082 63.7881 23.3662 64.3857 22.9736C64.9834 22.5752 65.6924 22.376 66.5127 22.376C66.958 22.376 67.3682 22.4463 67.7432 22.5869C68.1182 22.7275 68.4492 22.9268 68.7363 23.1846C69.0293 23.4424 69.2725 23.75 69.4658 24.1074H69.5713V22.543H71.1006V31.8594C71.1006 32.5625 70.9277 33.1748 70.582 33.6963C70.2422 34.2178 69.7559 34.6221 69.123 34.9092C68.4902 35.1963 67.7461 35.3398 66.8906 35.3398ZM66.8115 30.1807C67.3975 30.1807 67.8984 30.0459 68.3145 29.7764C68.7305 29.501 69.0498 29.123 69.2725 28.6426C69.501 28.1621 69.6152 27.6055 69.6152 26.9727V26.9551C69.6152 26.3281 69.501 25.7715 69.2725 25.2852C69.0498 24.7988 68.7305 24.418 68.3145 24.1426C67.8984 23.8672 67.3975 23.7295 66.8115 23.7295C66.2314 23.7295 65.7363 23.8672 65.3262 24.1426C64.9219 24.418 64.6113 24.7988 64.3945 25.2852C64.1836 25.7715 64.0781 26.3281 64.0781 26.9551V26.9727C64.0781 27.6055 64.1836 28.1621 64.3945 28.6426C64.6113 29.123 64.9219 29.501 65.3262 29.7764C65.7363 30.0459 66.2314 30.1807 66.8115 30.1807ZM77.7627 32.167C76.8604 32.167 76.0869 31.9678 75.4424 31.5693C74.7979 31.1709 74.2998 30.6084 73.9482 29.8818C73.6025 29.1553 73.4297 28.2969 73.4297 27.3066V27.2979C73.4297 26.3193 73.6025 25.4609 73.9482 24.7227C74.2998 23.9844 74.792 23.4102 75.4248 23C76.0635 22.584 76.8105 22.376 77.666 22.376C78.5273 22.376 79.2656 22.5752 79.8809 22.9736C80.502 23.3662 80.9766 23.9199 81.3047 24.6348C81.6387 25.3438 81.8057 26.1699 81.8057 27.1133V27.7109H74.2207V26.4893H81.0234L80.2676 27.6055V26.999C80.2676 26.2549 80.1562 25.6426 79.9336 25.1621C79.7109 24.6816 79.4033 24.3242 79.0107 24.0898C78.6182 23.8555 78.167 23.7383 77.6572 23.7383C77.1475 23.7383 76.6934 23.8613 76.2949 24.1074C75.8965 24.3535 75.5801 24.7197 75.3457 25.2061C75.1113 25.6924 74.9941 26.29 74.9941 26.999V27.6055C74.9941 28.2793 75.1084 28.8535 75.3369 29.3281C75.5654 29.8027 75.8877 30.1689 76.3037 30.4268C76.7256 30.6787 77.2236 30.8047 77.7979 30.8047C78.2256 30.8047 78.5977 30.7461 78.9141 30.6289C79.2305 30.5117 79.4912 30.3623 79.6963 30.1807C79.9014 29.999 80.0449 29.8115 80.127 29.6182L80.1621 29.5391H81.6914L81.6738 29.6094C81.5918 29.9375 81.4453 30.2539 81.2344 30.5586C81.0293 30.8574 80.7598 31.1299 80.4258 31.376C80.0977 31.6162 79.7109 31.8096 79.2656 31.9561C78.8203 32.0967 78.3193 32.167 77.7627 32.167ZM84.1523 32V22.543H85.6816V23.9492H85.8135C85.9951 23.4512 86.2998 23.0645 86.7275 22.7891C87.1611 22.5137 87.6943 22.376 88.3271 22.376C88.4736 22.376 88.6172 22.3848 88.7578 22.4023C88.9043 22.4141 89.0127 22.4258 89.083 22.4375V23.9229C88.9307 23.8936 88.7783 23.873 88.626 23.8613C88.4795 23.8438 88.3213 23.835 88.1514 23.835C87.6709 23.835 87.2432 23.9316 86.8682 24.125C86.499 24.3125 86.209 24.5791 85.998 24.9248C85.7871 25.2705 85.6816 25.6748 85.6816 26.1377V32H84.1523Z" fill="url(#paint0_linear_5_4)"/>
<path d="M94.6582 32.167C93.9551 32.167 93.334 32.0615 92.7949 31.8506C92.2559 31.6338 91.8223 31.332 91.4941 30.9453C91.1719 30.5527 90.9814 30.0957 90.9229 29.5742H92.4873C92.6162 29.9727 92.8652 30.292 93.2344 30.5322C93.6094 30.7725 94.1016 30.8926 94.7109 30.8926C95.1328 30.8926 95.5049 30.8311 95.8271 30.708C96.1553 30.5791 96.4102 30.4062 96.5918 30.1895C96.7793 29.9727 96.873 29.7207 96.873 29.4336V29.416C96.873 29.0938 96.7441 28.8213 96.4863 28.5986C96.2344 28.3701 95.8184 28.1855 95.2383 28.0449L93.7705 27.6934C93.1787 27.5527 92.6924 27.3711 92.3115 27.1484C91.9307 26.9199 91.6494 26.6416 91.4678 26.3135C91.2861 25.9795 91.1953 25.5869 91.1953 25.1357V25.127C91.1953 24.5996 91.3477 24.1279 91.6523 23.7119C91.9629 23.2959 92.3818 22.9707 92.9092 22.7363C93.4424 22.4961 94.043 22.376 94.7109 22.376C95.373 22.376 95.959 22.4814 96.4688 22.6924C96.9844 22.8975 97.3975 23.1934 97.708 23.5801C98.0244 23.9609 98.2148 24.4062 98.2793 24.916V24.9248H96.7852H96.7764C96.6826 24.5439 96.457 24.2363 96.0996 24.002C95.7422 23.7676 95.2764 23.6504 94.7021 23.6504C94.3271 23.6504 93.9932 23.7119 93.7002 23.835C93.4131 23.9521 93.1846 24.1162 93.0146 24.3271C92.8447 24.5322 92.7598 24.7754 92.7598 25.0566V25.0742C92.7598 25.2852 92.8154 25.4727 92.9268 25.6367C93.0381 25.8008 93.208 25.9443 93.4365 26.0674C93.6709 26.1904 93.9727 26.2988 94.3418 26.3926L95.8008 26.7441C96.6914 26.9609 97.3535 27.2715 97.7871 27.6758C98.2207 28.0801 98.4375 28.6221 98.4375 29.3018V29.3193C98.4375 29.876 98.2705 30.3711 97.9365 30.8047C97.6084 31.2324 97.1572 31.5664 96.583 31.8066C96.0146 32.0469 95.373 32.167 94.6582 32.167Z" fill="#484A72"/>
<defs>
<filter id="filter0_d_5_4" x="45.4062" y="22.376" width="6.93066" height="9.62402" filterUnits="userSpaceOnUse" color-interpolation-filters="sRGB">
<feFlood flood-opacity="0" result="BackgroundImageFix"/>
<feColorMatrix in="SourceAlpha" type="matrix" values="0 0 0 0 0 0 0 0 0 0 0 0 0 0 0 0 0 0 127 0" result="hardAlpha"/>
<feOffset dx="2"/>
<feComposite in2="hardAlpha" operator="out"/>
<feColorMatrix type="matrix" values="0 0 0 0 0.94902 0 0 0 0 0.952941 0 0 0 0 0.968627 0 0 0 1 0"/>
<feBlend mode="normal" in2="BackgroundImageFix" result="effect1_dropShadow_5_4"/>
<feBlend mode="normal" in="SourceGraphic" in2="effect1_dropShadow_5_4" result="shape"/>
</filter>
<linearGradient id="paint0_linear_5_4" x1="90" y1="25.5" x2="51" y2="25.5" gradientUnits="userSpaceOnUse">
<stop stop-color="#F2F3F7"/>
<stop offset="1" stop-color="#484A72"/>
</linearGradient>
</defs>
</svg>
